<svg xmlns="http://www.w3.org/2000/svg" width="5634" height="3756" viewBox="0 0 5634 3756">
  <defs>
    <style>
      .cls-1 {
        fill-rule: evenodd;
      }
    </style>
  </defs>
  <path id="Color_Fill_1" data-name="Color Fill 1" class="cls-1" d="M0,0H5634V2924c-2.33.2-2.83,0.19-4,1-7.76,2.62-11.73,10.73-17,16-2.33,2.33-5.67,3.67-8,6-10.33,10.33-19.67,21.67-30,32-42.33,42.34-85.67,83.67-128,126l-38,38c-4.23,4.23-7.77,10.95-13,14-5.13,2.99-16.68,3.71-22,5-8.32,2.02-20.5-.66-26-2h-32c-1.67-.54-4.34-3.38-6-4-7.97-2.98-17.95-1.31-25-5-2.86-1.5-5.82-5.89-9-7h-8c-6.2-1.59-14.69-4.61-20-6q-7.005-.495-14-1c-18.18-6.63-36.57-16.8-56-23-3.15-1-28.77-2.76-32-2-5.04,1.18-16.18,4-24,2-12.13-3.1-26.86-8.45-38-12h-36c-4.9-1.23-10.05-4.52-14-6-6.58-2.47-14.21.52-22-2-1.64-.53-4.36-3.47-6-4h-12c-2.37-.69-5.34-3.31-8-4h-28c-2.41-.78-5.62-4.1-8-5-5.51-2.08-10.54-.81-16-3-2.7-1.09-5.26-5.05-8-6-7.83-2.71-14.36.52-22-2-8.46-2.79-21.13-7.73-30-10-9.3-2.38-20.8.97-30-2-1.64-.53-4.36-3.47-6-4h-10c-1.64-.54-4.35-3.47-6-4q-7.005-.495-14-1c-4.44-1.58-9.93-5.68-14-7h-10c-3.44-1.02-6.73-4.95-10-6h-12a89.945,89.945,0,0,1-20-2h-18c-4.69-1.52-11.3-6.49-16-8h-14c-5.63-1.83-13.53-6.32-20-8h-8c-9.06-2.34-20.92-5.73-30-8h-10c-5.39-1.59-10.22-6.49-16-8h-12c-3.02-.78-6.98-3.24-10-4h-18c-2.37-.68-5.35-3.31-8-4h-12c-5.74-1.71-8.93-7.95-14-10-8.36-3.38-20.01,1.23-30-2-1.65-.53-4.35-3.46-6-4-6.63-2.17-11.69.17-18-2-1.67-.57-4.33-3.42-6-4-4.26-1.47-6.82-.05-10-2-0.67-1-1.33-2-2-3l-20-3c-2.7-1.08-5.26-5.06-8-6-4.97-1.71-10.89.94-15-1-5.92-2.79-12.18-7.59-19-10-7.46-2.63-17.06-.21-24-3-2.7-1.09-5.26-5.05-8-6h-10c-6.98-1.81-18.63-4.66-27-6h-27c-6.73-1.7-12.58-6.24-18-8h-10c-11.01-2.78-24.46-6.92-34-10h-10c-3.82-.97-9.03-3.74-12-5q-13.995-2.505-28-5c-9-3.09-22.27-7.46-32-10-10.62-2.77-18.48-1.56-28-5-3.35-1.21-8.28-4.05-12-5h-12c-10.12-2.61-21.64-7.23-32-10-10.5-2.81-22.81-3.69-32-6h-10c-2.41-.79-5.62-4.11-8-5q-7.995-.495-16-1c-2.41-.79-5.62-4.11-8-5q-7.005-.495-14-1c-5.21-1.32-11.91-4.69-16-6h-18c-5.83-1.47-13.51-2.66-20-5-28.71-10.36-65.83-14.13-94-26q-7.005-.495-14-1c-4.11-1.22-8.07-5.53-12-7q-15-2.505-30-5c-7.85-2.16-17.74-5.94-26-8h-12c-2.41-.78-5.62-4.11-8-5q-6-.495-12-1c-5.32-1.38-11.13-4.74-16-6h-18c-5.85-1.69-16.43-6.22-22-8-9.11-2.92-21,1.12-30-2-2.73-.95-5.28-5.01-8-6-7.58-2.75-15.46.76-24-2-3.88-1.26-9.18-4.8-14-6h-16c-3.14-1.09-5.39-5.69-8-7q-7.005-.495-14-1c-9.2-2.99-21.37-7.39-32-10h-18c-4.15-1.2-9.37-4.83-14-6h-12c-4.33-1.51-7.74-7.13-12-9-10.47-4.59-24.55-1.93-36-5-19.02-5.1-30.08-13.7-54-14,1.1-13.79,4.57-26.75,8-40,0.66-2.56,3.57-7.38,2-12-1.28-3.76-6.7-6.24-8-10v-29c0-13.99-2.53-38.99-7-49-10.14-22.7-22.79-45.15-38-63-3.48-4.08-4.41-10.07-8-14-8.81-9.64-22.07-15.49-32-24-33.92-29.06-72.81-51.95-114-74-3.29-1.76-5.32-5.68-8-8-3.71-3.21-10.72-2.26-15-5-5.58-3.57-11.93-10.05-18-13-3.33-.33-6.67-0.67-10-1-4.07-1.52-6.49-7.2-10-9-2.67-.33-5.33-0.67-8-1-8.35-3.39-19.44-11.28-28-15-7.14-3.1-14.65-2.22-22-5-4.72-1.78-7.27-8.25-12-10-13.88-5.13-27.83-5.04-42-10-4.48-1.57-7.88-6.57-12-8-6.52-2.26-12.32.16-18-2-4.53-1.72-9.47-6.29-14-8-7.44-2.81-14.14-1.23-22-4-2.22-.78-4.25-4.14-6-5-2.67-.33-5.33-0.67-8-1-3.76-1.16-9.01-3.72-12-5q-18-4.005-36-8c-32.83-9.97-70.23-15.96-104-25-17.2-4.6-32.38-3.49-50-8-51.95-13.29-112.54-14.86-166-28h-12c-18.81-4.66-42.77-5.3-62-10-10.98-2.68-19.24.66-30-2-33-8.15-74.53-3.84-108-12h-18c-8.44-2.07-25.55-1.94-34-4h-26c-7.16-.73-21.16-2.33-28-4h-29c-12.28-.01-20.65-2-34-2h-23c-10.22-3-21.11-17.32-30-23-9.39-6-20.61-8.95-29-16-4.07-3.42-12.9-11.62-17-14-3.15-1.83-7.8.24-12-1-2.46-.73-17.16-9.01-20-11-4.55-3.2-3.59-11.59-8-15v-1h-1v1c-0.8,1.18-.77,1.68-1,4-16.72.24-32.27-5.3-41-13-3.87-3.42-6.45-9.32-11-12-2.31-1.36-5,.13-8-1-4.36-1.65-14.6-10.05-17-14-5.32-8.76-9.03-22.18-19-26a265.824,265.824,0,0,0-26-8q-10.005-1.005-20-2c-4.56-1.37-7.87-6.57-12-8h-12c-3.44-1.01-6.73-4.94-10-6H1762c-4.83-1.23-9.34-4.79-14-6h-27c-11.16-.09-23.14-1.79-35-1-4.09,5.96-11.97,8.91-17,14-8.73,8.84-14.38,19.98-25,27-4.9,3.24-11.07,3.72-16,7-3.36,2.24-6.57,6.76-10,9-3.47,2.27-7.99,2.34-11,5-4.77,4.22-5.77,11.2-10,16-3.71,4.21-10.98,7.3-13,13-0.33,3.33-.67,6.67-1,10-1.74,2.99-5.56,4.63-8,7-4.02,3.89-7.33,8.77-11,13-9.18-1.84-22.04-2-34-2h-14c-1.33-1.67-2.67-3.33-4-5-1.7-1.06-10.78-4.61-12-5-5.37-1.72-15.65-.93-20-2-16.46-4.05-33.2,4.15-50,0h-12c-4.2-1.39-7.64-6.59-12-8h-24c-6.15-2.02-10.15-9.97-16-12h-40c-2.72-.92-5.28-5.07-8-6h-12c-6.21-1.98-11.49-8.3-18-10-10.43-2.72-17.75,4.16-24,6h-8c-5.66,1.46-12.61,4.63-18,6h-12c-1.64.53-4.36,3.47-6,4h-28c-5.08,1.78-8.3,8.33-14,10h-32c-5.2,1.34-9.57,5.28-14,7-16.35,6.36-42.78,13.32-51,27-3.3,5.49-4.06,10.07-7,16-1.98,4-5.5,6.35-7,11,2.25-.78,4.8-1.48,7,0h-2c-6.05,8.33-13.28,19.2-21,26-3.29,2.9-8.7,3.12-12,6-12.09,10.57-17.04,21.7-17,45-10.98,7.14-15.42,19.94-30,24-6.114,1.7-17.605-2-26-2H910c-1.346.32-3.994,2.05-6,2-5.448-.15-7.973-6.06-16-4-5.176,1.33-7.6,6.48-12,8H866c-5.125,1.67-11.771,6.65-17,9q-6.5.495-13,1c-3.265,1.06-6.558,5.01-10,6H796c-3.125,1-12.268,4.61-15,7-2.983,2.61-4.871,7.57-9,9H754c-1.651.53-4.354,3.44-6,4l-18,3c-2.831,1.6-8.657,5.9-10,9q-0.5,3-1,6l-15,12c-3.87,5.57-6.28,12.31-11,17-8.3,8.25-17.215.98-29,5-2.717.93-5.284,5.07-8,6-4.094,1.41-8.862-.84-12,1-2.447,1.43-19.105,22.4-20,25v12l-7,6q-1,3-2,6c-4.718,6.74-15.859,6.55-23,11-3.816,2.38-4.223,5.53-7,9-2.05,2.56-7.369,3.01-9,6q-0.5,3-1,6c-1.3,2.2-4.653,3.96-6,6-2.891,4.38-2.856,11.9-4,18-2.608,1.22-5.9,1.29-9,3-2.44,1.34-10.643,19.77-11,21,0.333,1.33.667,2.67,1,4-0.831,4.72-2.613,11.09-5,15-2.7,4.42-8.692,4.04-13,7-3.248,2.23-2.55,6.93-5,10-1.757,2.2-12.074,6.79-15,9-5.1,3.85-6.874,10.13-11,15-2.516,2.97-7.658,3.75-10,7-2.078,2.88-2.314,7.79-5,10-2.7,2.22-7.207,1.8-10,4-1.426,1.12-.891,3.48-2,5-3.956,5.44-9.984,4.88-11,14-3.77,6.12-.34,16.61-2,20-2.047,2.97-4.148,3.74-9,4,0.395,4.1,2.054,7.8,1,10-3.4,10.1-15.53,15.59-22,23-2.889,3.31-1.18,6.07-3,11-0.735,1.99-4.284,4.21-5,6-2.923,7.29,3.614,12.14,2,18-1.691,6.14-4.375,8.03-4,16,1.907,1.34,10.411,13.91,11,16,1.345,4.77-2.307,9.12-2,15q1,5.505,2,11c-0.79,2.7-5.085,5.32-6,8-1.549,4.53-.256,12.32-1,16-6.94,4.15-13.141,11.53-20,15-3,.33-6,0.67-9,1-6,1.73-15.276,4.31-22,7-5.068,2.03-8.426,7.65-13,10-2.333.33-4.667,0.67-7,1-3.248,1.27-6.538,4.95-10,6q-6,.495-12,1c-6.5,2.5-14.567,8.85-21,12-3.666.33-7.334,0.67-11,1-3.653,1.24-7.641,5.38-11,7q-5.5,1.005-11,2c-2.632,1.35-4.9,5.74-8,7-7.082,2.88-12.915,1.89-20,5-4.611,2.03-9.551,7.34-14,9h-6c-1.656.58-4.337,3.45-6,4H210c-2.219.8-3.389,3.65-5,5-4.444,3.72-12.962,7.61-18,10q-10.5,1.995-21,4c-6.021,2.69-11.216,9.1-17,12q-5.5,1.005-11,2c-1.894.84-4.356,3.97-6,5-3.161,1.98-5.761.51-10,2-6.294,2.22-13,8.16-19,11q-6.5,1.005-13,2c-4.887,1.76-8.9,5.97-13,8-3,.33-6,0.67-9,1-3.657,1.27-7.62,5.4-11,7q-6.5,1.005-13,2c-2.845,1.45-5.129,6.34-8,8-3.15,1.82-7.862-.34-12,1-1.644.53-4.355,3.47-6,4H0V0Z"/>
</svg>
